<?xml version="1.0" encoding="UTF-8" standalone="no"?>
<!DOCTYPE svg PUBLIC "-//W3C//DTD SVG 1.1//EN"
 "http://www.w3.org/Graphics/SVG/1.1/DTD/svg11.dtd">
<!-- Generated by graphviz version 14.1.1 (0)
 -->
<!-- Title: ConstructedConstraints Pages: 1 -->
<svg width="207pt" height="260pt"
 viewBox="0.00 0.00 207.00 260.00" xmlns="http://www.w3.org/2000/svg" xmlns:xlink="http://www.w3.org/1999/xlink">
<g id="graph0" class="graph" transform="scale(1 1) rotate(0) translate(4 256)">
<title>ConstructedConstraints</title>
<polygon fill="white" stroke="none" points="-4,4 -4,-256 202.88,-256 202.88,4 -4,4"/>
<!-- A -->
<g id="node1" class="node">
<title>A</title>
<path fill="none" stroke="black" d="M176,-252C176,-252 146,-252 146,-252 140,-252 134,-246 134,-240 134,-240 134,-228 134,-228 134,-222 140,-216 146,-216 146,-216 176,-216 176,-216 182,-216 188,-222 188,-228 188,-228 188,-240 188,-240 188,-246 182,-252 176,-252"/>
<text xml:space="preserve" text-anchor="middle" x="161" y="-228.2" font-family="Times,serif" font-size="14.00">主体</text>
</g>
<!-- B -->
<g id="node2" class="node">
<title>B</title>
<path fill="none" stroke="black" d="M156.62,-180C156.62,-180 93.38,-180 93.38,-180 87.38,-180 81.38,-174 81.38,-168 81.38,-168 81.38,-156 81.38,-156 81.38,-150 87.38,-144 93.38,-144 93.38,-144 156.62,-144 156.62,-144 162.62,-144 168.62,-150 168.62,-156 168.62,-156 168.62,-168 168.62,-168 168.62,-174 162.62,-180 156.62,-180"/>
<text xml:space="preserve" text-anchor="middle" x="125" y="-156.2" font-family="Times,serif" font-size="14.00">行為・状態</text>
</g>
<!-- A&#45;&gt;B -->
<g id="edge1" class="edge">
<title>A&#45;&gt;B</title>
<path fill="none" stroke="black" d="M152.1,-215.7C148.13,-207.98 143.37,-198.71 138.94,-190.11"/>
<polygon fill="black" stroke="black" points="142.17,-188.74 134.49,-181.45 135.95,-191.94 142.17,-188.74"/>
</g>
<!-- E -->
<g id="node5" class="node">
<title>E</title>
<path fill="none" stroke="black" d="M186.88,-36C186.88,-36 95.12,-36 95.12,-36 89.12,-36 83.12,-30 83.12,-24 83.12,-24 83.12,-12 83.12,-12 83.12,-6 89.12,0 95.12,0 95.12,0 186.88,0 186.88,0 192.88,0 198.88,-6 198.88,-12 198.88,-12 198.88,-24 198.88,-24 198.88,-30 192.88,-36 186.88,-36"/>
<text xml:space="preserve" text-anchor="middle" x="141" y="-12.2" font-family="Times,serif" font-size="14.00">命題としての文</text>
</g>
<!-- A&#45;&gt;E -->
<g id="edge4" class="edge">
<title>A&#45;&gt;E</title>
<path fill="none" stroke="black" d="M168.07,-215.67C171.84,-205.47 176.09,-192.22 178,-180 185.44,-132.45 184.48,-117.9 170,-72 167.23,-63.24 162.97,-54.26 158.55,-46.25"/>
<polygon fill="black" stroke="black" points="161.6,-44.54 153.53,-37.68 155.56,-48.08 161.6,-44.54"/>
</g>
<!-- C -->
<g id="node3" class="node">
<title>C</title>
<path fill="none" stroke="black" d="M42,-108C42,-108 12,-108 12,-108 6,-108 0,-102 0,-96 0,-96 0,-84 0,-84 0,-78 6,-72 12,-72 12,-72 42,-72 42,-72 48,-72 54,-78 54,-84 54,-84 54,-96 54,-96 54,-102 48,-108 42,-108"/>
<text xml:space="preserve" text-anchor="middle" x="27" y="-84.2" font-family="Times,serif" font-size="14.00">対象</text>
</g>
<!-- B&#45;&gt;C -->
<g id="edge2" class="edge">
<title>B&#45;&gt;C</title>
<path fill="none" stroke="black" d="M100.52,-143.52C88.39,-134.85 73.55,-124.25 60.39,-114.85"/>
<polygon fill="black" stroke="black" points="62.57,-112.1 52.4,-109.14 58.5,-117.8 62.57,-112.1"/>
</g>
<!-- D -->
<g id="node4" class="node">
<title>D</title>
<path fill="none" stroke="black" d="M133.5,-108C133.5,-108 84.5,-108 84.5,-108 78.5,-108 72.5,-102 72.5,-96 72.5,-96 72.5,-84 72.5,-84 72.5,-78 78.5,-72 84.5,-72 84.5,-72 133.5,-72 133.5,-72 139.5,-72 145.5,-78 145.5,-84 145.5,-84 145.5,-96 145.5,-96 145.5,-102 139.5,-108 133.5,-108"/>
<text xml:space="preserve" text-anchor="middle" x="109" y="-84.2" font-family="Times,serif" font-size="14.00">時間配置</text>
</g>
<!-- B&#45;&gt;D -->
<g id="edge3" class="edge">
<title>B&#45;&gt;D</title>
<path fill="none" stroke="black" d="M121.04,-143.7C119.36,-136.32 117.35,-127.52 115.46,-119.25"/>
<polygon fill="black" stroke="black" points="118.89,-118.55 113.25,-109.58 112.06,-120.11 118.89,-118.55"/>
</g>
<!-- B&#45;&gt;E -->
<g id="edge5" class="edge">
<title>B&#45;&gt;E</title>
<path fill="none" stroke="black" d="M137.73,-143.85C144.29,-133.92 151.61,-120.88 155,-108 160.29,-87.9 156.32,-64.68 151.27,-47.01"/>
<polygon fill="black" stroke="black" points="154.69,-46.2 148.34,-37.72 148.01,-48.31 154.69,-46.2"/>
</g>
<!-- C&#45;&gt;E -->
<g id="edge6" class="edge">
<title>C&#45;&gt;E</title>
<path fill="none" stroke="black" d="M54.31,-72.23C68.93,-63.26 87.16,-52.06 103.13,-42.25"/>
<polygon fill="black" stroke="black" points="104.75,-45.37 111.44,-37.15 101.08,-39.4 104.75,-45.37"/>
</g>
<!-- D&#45;&gt;E -->
<g id="edge7" class="edge">
<title>D&#45;&gt;E</title>
<path fill="none" stroke="black" d="M116.91,-71.7C120.4,-64.07 124.58,-54.92 128.48,-46.4"/>
<polygon fill="black" stroke="black" points="131.58,-48.03 132.55,-37.48 125.21,-45.12 131.58,-48.03"/>
</g>
</g>
</svg>
