<?xml version="1.0" encoding="UTF-8" standalone="no"?>
<!DOCTYPE svg PUBLIC "-//W3C//DTD SVG 1.1//EN"
 "http://www.w3.org/Graphics/SVG/1.1/DTD/svg11.dtd">
<!-- Generated by graphviz version 14.1.1 (0)
 -->
<!-- Title: Continuum Pages: 1 -->
<svg width="596pt" height="46pt"
 viewBox="0.00 0.00 596.00 46.00" xmlns="http://www.w3.org/2000/svg" xmlns:xlink="http://www.w3.org/1999/xlink">
<g id="graph0" class="graph" transform="scale(1 1) rotate(0) translate(4 42)">
<title>Continuum</title>
<polygon fill="white" stroke="none" points="-4,4 -4,-42 592.25,-42 592.25,4 -4,4"/>
<!-- IG -->
<g id="node1" class="node">
<title>IG</title>
<path fill="none" stroke="black" d="M103,-38C103,-38 12,-38 12,-38 6,-38 0,-32 0,-26 0,-26 0,-12 0,-12 0,-6 6,0 12,0 12,0 103,0 103,0 109,0 115,-6 115,-12 115,-12 115,-26 115,-26 115,-32 109,-38 103,-38"/>
<text xml:space="preserve" text-anchor="middle" x="57.5" y="-20.7" font-family="MS Gothic" font-size="14.00">即時文法</text>
<text xml:space="preserve" text-anchor="middle" x="57.5" y="-5.7" font-family="MS Gothic" font-size="14.00">(反応・時間順)</text>
</g>
<!-- MID1 -->
<g id="node2" class="node">
<title>MID1</title>
<path fill="none" stroke="black" d="M212,-37C212,-37 163,-37 163,-37 157,-37 151,-31 151,-25 151,-25 151,-13 151,-13 151,-7 157,-1 163,-1 163,-1 212,-1 212,-1 218,-1 224,-7 224,-13 224,-13 224,-25 224,-25 224,-31 218,-37 212,-37"/>
<text xml:space="preserve" text-anchor="middle" x="187.5" y="-13.2" font-family="MS Gothic" font-size="14.00">即時寄り</text>
</g>
<!-- IG&#45;&gt;MID1 -->
<g id="edge1" class="edge">
<title>IG&#45;&gt;MID1</title>
<path fill="none" stroke="black" d="M115.39,-12.29C123.37,-12.2 131.5,-12.26 139.27,-12.46"/>
<polygon fill="black" stroke="black" points="139.1,-15.96 149.22,-12.82 139.36,-8.96 139.1,-15.96"/>
</g>
<!-- MID1&#45;&gt;IG -->
<g id="edge8" class="edge">
<title>MID1&#45;&gt;IG</title>
<path fill="none" stroke="black" d="M150.74,-25.13C143.19,-25.48 134.99,-25.69 126.7,-25.74"/>
<polygon fill="black" stroke="black" points="126.91,-22.24 116.9,-25.72 126.89,-29.24 126.91,-22.24"/>
</g>
<!-- MID2 -->
<g id="node3" class="node">
<title>MID2</title>
<path fill="none" stroke="black" d="M302,-37C302,-37 272,-37 272,-37 266,-37 260,-31 260,-25 260,-25 260,-13 260,-13 260,-7 266,-1 272,-1 272,-1 302,-1 302,-1 308,-1 314,-7 314,-13 314,-13 314,-25 314,-25 314,-31 308,-37 302,-37"/>
<text xml:space="preserve" text-anchor="middle" x="287" y="-13.2" font-family="MS Gothic" font-size="14.00">中間</text>
</g>
<!-- MID1&#45;&gt;MID2 -->
<g id="edge2" class="edge">
<title>MID1&#45;&gt;MID2</title>
<path fill="none" stroke="black" d="M224.25,-12.47C232.14,-12.2 240.52,-12.18 248.47,-12.41"/>
<polygon fill="black" stroke="black" points="248.06,-15.9 258.21,-12.86 248.38,-8.9 248.06,-15.9"/>
</g>
<!-- MID2&#45;&gt;MID1 -->
<g id="edge7" class="edge">
<title>MID2&#45;&gt;MID1</title>
<path fill="none" stroke="black" d="M259.72,-25.07C252.22,-25.56 243.82,-25.78 235.48,-25.75"/>
<polygon fill="black" stroke="black" points="235.83,-22.25 225.77,-25.56 235.7,-29.25 235.83,-22.25"/>
</g>
<!-- MID3 -->
<g id="node4" class="node">
<title>MID3</title>
<path fill="none" stroke="black" d="M411,-37C411,-37 362,-37 362,-37 356,-37 350,-31 350,-25 350,-25 350,-13 350,-13 350,-7 356,-1 362,-1 362,-1 411,-1 411,-1 417,-1 423,-7 423,-13 423,-13 423,-25 423,-25 423,-31 417,-37 411,-37"/>
<text xml:space="preserve" text-anchor="middle" x="386.5" y="-13.2" font-family="MS Gothic" font-size="14.00">調整寄り</text>
</g>
<!-- MID2&#45;&gt;MID3 -->
<g id="edge3" class="edge">
<title>MID2&#45;&gt;MID3</title>
<path fill="none" stroke="black" d="M314.38,-12.93C321.74,-12.45 329.97,-12.22 338.15,-12.25"/>
<polygon fill="black" stroke="black" points="338,-15.75 348.06,-12.43 338.13,-8.75 338,-15.75"/>
</g>
<!-- MID3&#45;&gt;MID2 -->
<g id="edge6" class="edge">
<title>MID3&#45;&gt;MID2</title>
<path fill="none" stroke="black" d="M349.58,-25.54C341.84,-25.8 333.63,-25.82 325.82,-25.6"/>
<polygon fill="black" stroke="black" points="326.05,-22.1 315.9,-25.14 325.73,-29.1 326.05,-22.1"/>
</g>
<!-- AG -->
<g id="node5" class="node">
<title>AG</title>
<path fill="none" stroke="black" d="M576.25,-38C576.25,-38 471,-38 471,-38 465,-38 459,-32 459,-26 459,-26 459,-12 459,-12 459,-6 465,0 471,0 471,0 576.25,0 576.25,0 582.25,0 588.25,-6 588.25,-12 588.25,-12 588.25,-26 588.25,-26 588.25,-32 582.25,-38 576.25,-38"/>
<text xml:space="preserve" text-anchor="middle" x="523.62" y="-20.7" font-family="MS Gothic" font-size="14.00">調整文法</text>
<text xml:space="preserve" text-anchor="middle" x="523.62" y="-5.7" font-family="MS Gothic" font-size="14.00">(社会化・形式化)</text>
</g>
<!-- MID3&#45;&gt;AG -->
<g id="edge4" class="edge">
<title>MID3&#45;&gt;AG</title>
<path fill="none" stroke="black" d="M423.36,-12.96C430.83,-12.6 438.97,-12.38 447.27,-12.29"/>
<polygon fill="black" stroke="black" points="447.13,-15.79 457.12,-12.26 447.11,-8.79 447.13,-15.79"/>
</g>
<!-- AG&#45;&gt;MID3 -->
<g id="edge5" class="edge">
<title>AG&#45;&gt;MID3</title>
<path fill="none" stroke="black" d="M458.64,-25.74C450.58,-25.78 442.46,-25.69 434.73,-25.47"/>
<polygon fill="black" stroke="black" points="434.99,-21.98 424.87,-25.1 434.73,-28.97 434.99,-21.98"/>
</g>
</g>
</svg>
