<?xml version="1.0" encoding="UTF-8" standalone="no"?>
<!DOCTYPE svg PUBLIC "-//W3C//DTD SVG 1.1//EN"
 "http://www.w3.org/Graphics/SVG/1.1/DTD/svg11.dtd">
<!-- Generated by graphviz version 14.1.1 (0)
 -->
<!-- Title: HumanLanguage Pages: 1 -->
<svg width="795pt" height="44pt"
 viewBox="0.00 0.00 795.00 44.00" xmlns="http://www.w3.org/2000/svg" xmlns:xlink="http://www.w3.org/1999/xlink">
<g id="graph0" class="graph" transform="scale(1 1) rotate(0) translate(4 40)">
<title>HumanLanguage</title>
<polygon fill="white" stroke="none" points="-4,4 -4,-40 790.75,-40 790.75,4 -4,4"/>
<!-- A -->
<g id="node1" class="node">
<title>A</title>
<path fill="none" stroke="black" d="M91,-36C91,-36 12,-36 12,-36 6,-36 0,-30 0,-24 0,-24 0,-12 0,-12 0,-6 6,0 12,0 12,0 91,0 91,0 97,0 103,-6 103,-12 103,-12 103,-24 103,-24 103,-30 97,-36 91,-36"/>
<text xml:space="preserve" text-anchor="middle" x="51.5" y="-14.12" font-family="Times,serif" font-size="10.00">A 他者の行為・発話</text>
</g>
<!-- B -->
<g id="node2" class="node">
<title>B</title>
<path fill="none" stroke="black" d="M200.75,-36C200.75,-36 151,-36 151,-36 145,-36 139,-30 139,-24 139,-24 139,-12 139,-12 139,-6 145,0 151,0 151,0 200.75,0 200.75,0 206.75,0 212.75,-6 212.75,-12 212.75,-12 212.75,-24 212.75,-24 212.75,-30 206.75,-36 200.75,-36"/>
<text xml:space="preserve" text-anchor="middle" x="175.88" y="-14.12" font-family="Times,serif" font-size="10.00">B 知覚・注意</text>
</g>
<!-- A&#45;&gt;B -->
<g id="edge1" class="edge">
<title>A&#45;&gt;B</title>
<path fill="none" stroke="black" d="M103.33,-18C111.18,-18 119.27,-18 127.05,-18"/>
<polygon fill="black" stroke="black" points="127.04,-21.5 137.04,-18 127.04,-14.5 127.04,-21.5"/>
</g>
<!-- C -->
<g id="node3" class="node">
<title>C</title>
<path fill="none" stroke="black" d="M349.5,-36C349.5,-36 260.75,-36 260.75,-36 254.75,-36 248.75,-30 248.75,-24 248.75,-24 248.75,-12 248.75,-12 248.75,-6 254.75,0 260.75,0 260.75,0 349.5,0 349.5,0 355.5,0 361.5,-6 361.5,-12 361.5,-12 361.5,-24 361.5,-24 361.5,-30 355.5,-36 349.5,-36"/>
<text xml:space="preserve" text-anchor="middle" x="305.12" y="-14.12" font-family="Times,serif" font-size="10.00">C 身体的・情動的反応</text>
</g>
<!-- B&#45;&gt;C -->
<g id="edge2" class="edge">
<title>B&#45;&gt;C</title>
<path fill="none" stroke="black" d="M213,-18C220.58,-18 228.8,-18 237.1,-18"/>
<polygon fill="black" stroke="black" points="236.9,-21.5 246.9,-18 236.9,-14.5 236.9,-21.5"/>
</g>
<!-- D -->
<g id="node4" class="node">
<title>D</title>
<path fill="none" stroke="black" d="M479.5,-36C479.5,-36 409.5,-36 409.5,-36 403.5,-36 397.5,-30 397.5,-24 397.5,-24 397.5,-12 397.5,-12 397.5,-6 403.5,0 409.5,0 409.5,0 479.5,0 479.5,0 485.5,0 491.5,-6 491.5,-12 491.5,-12 491.5,-24 491.5,-24 491.5,-30 485.5,-36 479.5,-36"/>
<text xml:space="preserve" text-anchor="middle" x="444.5" y="-14.12" font-family="Times,serif" font-size="10.00">D 立場・スタンス</text>
</g>
<!-- C&#45;&gt;D -->
<g id="edge3" class="edge">
<title>C&#45;&gt;D</title>
<path fill="none" stroke="black" d="M361.6,-18C369.51,-18 377.66,-18 385.61,-18"/>
<polygon fill="black" stroke="black" points="385.55,-21.5 395.55,-18 385.55,-14.5 385.55,-21.5"/>
</g>
<!-- E -->
<g id="node5" class="node">
<title>E</title>
<path fill="none" stroke="black" d="M666.5,-36C666.5,-36 539.5,-36 539.5,-36 533.5,-36 527.5,-30 527.5,-24 527.5,-24 527.5,-12 527.5,-12 527.5,-6 533.5,0 539.5,0 539.5,0 666.5,0 666.5,0 672.5,0 678.5,-6 678.5,-12 678.5,-12 678.5,-24 678.5,-24 678.5,-30 672.5,-36 666.5,-36"/>
<text xml:space="preserve" text-anchor="middle" x="603" y="-14.12" font-family="Times,serif" font-size="10.00">E 外在化（音声・身振り・語）</text>
</g>
<!-- D&#45;&gt;E -->
<g id="edge4" class="edge">
<title>D&#45;&gt;E</title>
<path fill="none" stroke="black" d="M491.61,-18C499.3,-18 507.48,-18 515.79,-18"/>
<polygon fill="black" stroke="black" points="515.65,-21.5 525.65,-18 515.65,-14.5 515.65,-21.5"/>
</g>
<!-- F -->
<g id="node6" class="node">
<title>F</title>
<path fill="none" stroke="black" d="M774.75,-36C774.75,-36 726.5,-36 726.5,-36 720.5,-36 714.5,-30 714.5,-24 714.5,-24 714.5,-12 714.5,-12 714.5,-6 720.5,0 726.5,0 726.5,0 774.75,0 774.75,0 780.75,0 786.75,-6 786.75,-12 786.75,-12 786.75,-24 786.75,-24 786.75,-30 780.75,-36 774.75,-36"/>
<text xml:space="preserve" text-anchor="middle" x="750.62" y="-14.12" font-family="Times,serif" font-size="10.00">F 社会的共有</text>
</g>
<!-- E&#45;&gt;F -->
<g id="edge5" class="edge">
<title>E&#45;&gt;F</title>
<path fill="none" stroke="black" d="M678.95,-18C686.99,-18 695.01,-18 702.59,-18"/>
<polygon fill="black" stroke="black" points="702.59,-21.5 712.59,-18 702.59,-14.5 702.59,-21.5"/>
</g>
</g>
</svg>
